<svg width="12" height="12" viewBox="0 0 12 12" fill="none" xmlns="http://www.w3.org/2000/svg">
<path d="M2.86458 5.29708C3.70458 6.94792 5.055 8.29833 6.70875 9.13833L7.99208 7.85208C8.1525 7.69167 8.38292 7.645 8.58417 7.70917C9.2375 7.925 9.94042 8.04167 10.6667 8.04167C10.9904 8.04167 11.25 8.30125 11.25 8.625V10.6667C11.25 10.9904 10.9904 11.25 10.6667 11.25C5.18917 11.25 0.75 6.81083 0.75 1.33333C0.75 1.00958 1.0125 0.75 1.33333 0.75H3.375C3.69875 0.75 3.95833 1.00958 3.95833 1.33333C3.95833 2.05958 4.075 2.7625 4.29083 3.41583C4.355 3.61708 4.30833 3.8475 4.14792 4.00792L2.86458 5.29708Z" fill="white"/>
</svg>
