<svg width="60" height="60" viewBox="0 0 60 60" fill="none" xmlns="http://www.w3.org/2000/svg">
<g clip-path="url(#clip0_25_4)">
<path d="M30 60C46.5685 60 60 46.5685 60 30C60 13.4315 46.5685 0 30 0C13.4315 0 0 13.4315 0 30C0 46.5685 13.4315 60 30 60Z" fill="#00AFEF"/>
<g clip-path="url(#clip1_25_4)">
<mask id="mask0_25_4" style="mask-type:luminance" maskUnits="userSpaceOnUse" x="18" y="18" width="24" height="24">
<path d="M42 18H18V42H42V18Z" fill="white"/>
</mask>
<g mask="url(#mask0_25_4)">
<path d="M38.9487 32.0517C38.6738 28.4723 37.0073 26.2293 35.5371 24.25C34.1758 22.4175 33 20.8351 33 18.5009C33 18.3134 32.895 18.142 32.7285 18.0561C32.5615 17.9696 32.3608 17.9838 32.209 18.0941C30.001 19.6741 28.1587 22.337 27.5152 24.8778C27.0684 26.6467 27.0093 28.6354 27.001 29.9488C24.9619 29.5132 24.5 26.4632 24.4951 26.4299C24.4722 26.2717 24.3755 26.1341 24.2349 26.0589C24.0928 25.9847 23.9258 25.9793 23.7818 26.0506C23.6748 26.1023 21.1572 27.3816 21.0107 32.4891C21.0005 32.659 21 32.8295 21 32.9999C21 37.9619 25.0376 41.9992 30 41.9992C30.0068 41.9997 30.0142 42.0007 30.02 41.9992C30.022 41.9992 30.0239 41.9992 30.0263 41.9992C34.9766 41.985 39 37.9531 39 32.9999C39 32.7503 38.9487 32.0517 38.9487 32.0517ZM30 40.9993C28.3457 40.9993 27 39.5658 27 37.8037C27 37.7437 26.9995 37.6831 27.0039 37.6089C27.0239 36.8658 27.165 36.3585 27.3198 36.0211C27.6099 36.6442 28.1284 37.2169 28.9707 37.2169C29.2471 37.2169 29.4707 36.9932 29.4707 36.7169C29.4707 36.0051 29.4854 35.1838 29.6626 34.4426C29.8204 33.7854 30.1973 33.0862 30.6749 32.5258C30.8872 33.2533 31.3013 33.8421 31.7056 34.4167C32.2843 35.2389 32.8824 36.089 32.9874 37.5386C32.9937 37.6245 33.0001 37.711 33.0001 37.8037C33 39.5658 31.6543 40.9993 30 40.9993Z" fill="white"/>
</g>
</g>
</g>
<defs>
<clipPath id="clip0_25_4">
<rect width="60" height="60" fill="white"/>
</clipPath>
<clipPath id="clip1_25_4">
<rect width="24" height="24" fill="white" transform="translate(18 18)"/>
</clipPath>
</defs>
</svg>
