<svg width="60" height="60" viewBox="0 0 60 60" fill="none" xmlns="http://www.w3.org/2000/svg">
<g clip-path="url(#clip0_25_4)">
<path d="M30 60C46.5685 60 60 46.5685 60 30C60 13.4315 46.5685 0 30 0C13.4315 0 0 13.4315 0 30C0 46.5685 13.4315 60 30 60Z" fill="#00AFEF"/>
<path d="M37.734 30.1242L36.859 29.2485C39.719 26.3878 39.7183 21.7351 36.8576 18.8751L37.734 18C41.0772 21.3419 41.0772 26.7823 37.734 30.1242ZM35.3444 27.7345L36.2195 28.6116C38.7275 26.1029 38.7275 22.0213 36.2195 19.5139L35.3444 20.389C37.3693 22.4132 37.3693 25.7104 35.3444 27.7345ZM34.6582 27.0483C36.3054 25.4017 36.3054 22.7211 34.6575 21.0752L33.7824 21.9503C34.9478 23.1156 34.9478 25.0099 33.7824 26.1726L34.6582 27.0483ZM23.1431 18.8751L22.2667 18C18.9241 21.3419 18.9241 26.7823 22.2667 30.1242L23.1417 29.2485C20.2817 26.3891 20.2824 21.7357 23.1431 18.8751ZM23.7799 28.6116L24.6556 27.7345C22.6308 25.7104 22.6308 22.4152 24.6556 20.389L23.7799 19.5132C21.2711 22.0206 21.2711 26.1029 23.7799 28.6116ZM25.3419 27.0483L26.2176 26.1726C25.0536 25.0079 25.0536 23.1136 26.2183 21.9503L25.3425 21.0752C23.6953 22.7231 23.6953 25.4024 25.3419 27.0483ZM35.0344 39.4249H32.0235L30.2179 26.3776C31.0591 26.2694 31.7115 25.5587 31.7115 24.6878C31.7115 23.743 30.9448 22.9769 30 22.9769C29.0546 22.9769 28.2885 23.7437 28.2885 24.6878C28.2885 25.5587 28.9409 26.2694 29.7814 26.3776L27.9765 39.4249H24.9656C24.2543 39.4249 23.6784 40.0022 23.6784 40.7121C23.6784 41.4234 24.255 41.9993 24.9656 41.9993H35.0351C35.7464 41.9993 36.3223 41.4214 36.3223 40.7121C36.3223 40.0022 35.7464 39.4249 35.0344 39.4249Z" fill="white"/>
</g>
<defs>
<clipPath id="clip0_25_4">
<rect width="60" height="60" fill="white"/>
</clipPath>
</defs>
</svg>
