<svg width="60" height="60" viewBox="0 0 60 60" fill="none" xmlns="http://www.w3.org/2000/svg">
<g clip-path="url(#clip0_25_4)">
<path d="M30 60C46.5685 60 60 46.5685 60 30C60 13.4315 46.5685 0 30 0C13.4315 0 0 13.4315 0 30C0 46.5685 13.4315 60 30 60Z" fill="#00AFEF"/>
<path d="M37.6004 22.8V18H20.4004V40H21.6004V19.2H34.0004L37.6004 22.8Z" fill="white"/>
<path d="M33.966 20H22.6004V42H39.8004V25.8344L33.966 20ZM26.2004 24.8H30.2004C30.4212 24.8 30.6004 24.9788 30.6004 25.2C30.6004 25.4212 30.4212 25.6 30.2004 25.6H26.2004C25.9796 25.6 25.8004 25.4212 25.8004 25.2C25.8004 24.9788 25.9796 24.8 26.2004 24.8ZM36.2004 38.4H26.2004C25.9796 38.4 25.8004 38.2212 25.8004 38C25.8004 37.7788 25.9796 37.6 26.2004 37.6H36.2004C36.4212 37.6 36.6004 37.7788 36.6004 38C36.6004 38.2212 36.4212 38.4 36.2004 38.4ZM36.2004 35.2H26.2004C25.9796 35.2 25.8004 35.0212 25.8004 34.8C25.8004 34.5788 25.9796 34.4 26.2004 34.4H36.2004C36.4212 34.4 36.6004 34.5788 36.6004 34.8C36.6004 35.0212 36.4212 35.2 36.2004 35.2ZM36.2004 32H26.2004C25.9796 32 25.8004 31.8212 25.8004 31.6C25.8004 31.3788 25.9796 31.2 26.2004 31.2H36.2004C36.4212 31.2 36.6004 31.3788 36.6004 31.6C36.6004 31.8212 36.4212 32 36.2004 32ZM36.2004 28.8H26.2004C25.9796 28.8 25.8004 28.6212 25.8004 28.4C25.8004 28.1788 25.9796 28 26.2004 28H36.2004C36.4212 28 36.6004 28.1788 36.6004 28.4C36.6004 28.6212 36.4212 28.8 36.2004 28.8ZM33.4004 26.4V20.8L39.0004 26.4H33.4004Z" fill="white"/>
</g>
<defs>
<clipPath id="clip0_25_4">
<rect width="60" height="60" fill="white"/>
</clipPath>
</defs>
</svg>
