<svg width="60" height="60" viewBox="0 0 60 60" fill="none" xmlns="http://www.w3.org/2000/svg">
<g clip-path="url(#clip0_25_4)">
<path d="M30 60C46.5685 60 60 46.5685 60 30C60 13.4315 46.5685 0 30 0C13.4315 0 0 13.4315 0 30C0 46.5685 13.4315 60 30 60Z" fill="#00AFEF"/>
<g clip-path="url(#clip1_25_4)">
<mask id="mask0_25_4" style="mask-type:luminance" maskUnits="userSpaceOnUse" x="18" y="18" width="24" height="24">
<path d="M42 18H18V42.0001H42V18Z" fill="white"/>
</mask>
<g mask="url(#mask0_25_4)">
<path d="M35.1052 24.6926C33.4035 21.8838 31.5108 19.4529 30.5339 18.2537C30.4032 18.0932 30.2071 17.9999 30 18C29.7929 18 29.5968 18.0932 29.466 18.2538C28.4893 19.4533 26.5965 21.8851 24.8948 24.6941C22.7018 28.3142 21.5898 31.3073 21.5898 33.5899C21.5898 38.2273 25.3626 42.0001 30 42.0001C34.6373 42.0001 38.4101 38.2273 38.4101 33.5899C38.4101 31.3058 37.2983 28.3123 35.1052 24.6926ZM31.1541 38.9025C30.663 39.028 30.1532 39.0917 29.6387 39.0917C26.4967 39.0917 23.9405 36.717 23.9405 33.7982C23.9405 33.0936 24.1264 32.2703 24.493 31.3514C24.5549 31.1961 24.7313 31.1075 24.9053 31.1451C25.0791 31.1825 25.1958 31.334 25.1779 31.4988C25.1564 31.6959 25.1455 31.8884 25.1455 32.0708C25.1455 35.2472 27.705 37.9071 31.099 38.2577C31.2679 38.2751 31.3997 38.4015 31.4132 38.5589C31.4267 38.7164 31.3179 38.8605 31.1541 38.9025Z" fill="white"/>
</g>
</g>
</g>
<defs>
<clipPath id="clip0_25_4">
<rect width="60" height="60" fill="white"/>
</clipPath>
<clipPath id="clip1_25_4">
<rect width="24" height="24" fill="white" transform="translate(18 18)"/>
</clipPath>
</defs>
</svg>
