<svg width="60" height="60" viewBox="0 0 60 60" fill="none" xmlns="http://www.w3.org/2000/svg">
<g clip-path="url(#clip0_25_4)">
<path d="M30 60C46.5685 60 60 46.5685 60 30C60 13.4315 46.5685 0 30 0C13.4315 0 0 13.4315 0 30C0 46.5685 13.4315 60 30 60Z" fill="#00AFEF"/>
<g clip-path="url(#clip1_25_4)">
<path d="M36.6469 30.1328H35.0239C35.2437 30.7004 35.3645 31.3528 35.3645 32.0146C35.3645 32.6034 35.2681 33.1328 35.0924 33.7004H36.6469C38.3288 33.7004 38.4326 35.2401 38.4326 35.7211V37.1058H42.0001V35.7211C42.0001 32.466 39.7645 30.1328 36.6469 30.1328Z" fill="white"/>
<path d="M26.9338 34.8354C27.6944 35.6462 28.7818 36.1602 29.9881 36.1602C32.282 36.1602 34.1483 34.2866 34.1483 31.9926C34.1483 30.0546 32.8161 28.4183 31.0194 27.9583C31.4702 27.7675 31.8566 27.468 32.139 27.0757C32.2211 26.9617 32.2943 26.8084 32.3576 26.7273H36.4325C36.9922 26.7273 37.446 26.2735 37.446 25.7138C37.446 25.1541 36.9922 24.7003 36.4325 24.7003H32.4995C32.1474 23.6462 31.1564 22.894 29.9881 22.894C28.8199 22.894 27.8289 23.6462 27.4767 24.7003H23.5405C22.9808 24.7003 22.527 25.1541 22.527 25.7138C22.527 26.2735 22.9808 26.7273 23.5405 26.7273H27.6186C27.682 26.8084 27.7552 26.9599 27.8372 27.0739C28.1196 27.4661 28.506 27.7858 28.9568 27.9766C28.1473 28.1838 27.4323 28.5922 26.8908 29.2408H20.8378V30.1327H18V33.7003H20.8378V34.8354H26.9338Z" fill="white"/>
</g>
</g>
<defs>
<clipPath id="clip0_25_4">
<rect width="60" height="60" fill="white"/>
</clipPath>
<clipPath id="clip1_25_4">
<rect width="24" height="24" fill="white" transform="translate(18 18)"/>
</clipPath>
</defs>
</svg>
