<svg width="60" height="60" viewBox="0 0 60 60" fill="none" xmlns="http://www.w3.org/2000/svg">
<g clip-path="url(#clip0_25_4)">
<path d="M30 60C46.5685 60 60 46.5685 60 30C60 13.4315 46.5685 0 30 0C13.4315 0 0 13.4315 0 30C0 46.5685 13.4315 60 30 60Z" fill="#00AFEF"/>
<g clip-path="url(#clip1_25_4)">
<path d="M23.9989 41.8485L31.6808 34.1315C31.9959 33.8164 31.7708 33.2788 31.3257 33.2788H30.713C30.2955 33.2788 30.0604 32.7962 30.3205 32.4686L34.394 27.3323C34.654 27.0047 34.4215 26.5221 34.0014 26.5221H31.9534C31.5408 26.5221 31.3057 26.052 31.5533 25.7219L36.7571 18.8002C37.0046 18.4701 36.7696 18 36.357 18H28.1274C27.9373 18 27.7623 18.1075 27.6798 18.2776L23.6563 26.4171C23.4912 26.7497 23.7338 27.1398 24.1039 27.1398H25.9594C26.3294 27.1398 26.572 27.5299 26.407 27.8625L23.6563 33.4289C23.4912 33.7615 23.7338 34.1516 24.1039 34.1516H25.8518C26.2219 34.1516 26.462 34.5367 26.3019 34.8692L23.1962 41.2783C22.9486 41.7859 23.6013 42.2486 23.9989 41.8485Z" fill="white"/>
</g>
</g>
<defs>
<clipPath id="clip0_25_4">
<rect width="60" height="60" fill="white"/>
</clipPath>
<clipPath id="clip1_25_4">
<rect width="24" height="24" fill="white" transform="translate(18 18)"/>
</clipPath>
</defs>
</svg>
