<svg width="40" height="38" viewBox="0 0 40 38" fill="none" xmlns="http://www.w3.org/2000/svg">
<g clip-path="url(#clip0_1097_545)">
<path d="M1.225 24.324H0V19.747H1.225V24.324ZM1.225 26.124H0V30.7H1.225V26.124ZM1.225 32.538H0V37.114H1.225V32.538ZM1.225 13.367H0V17.943H1.225V13.367ZM1.225 6.98902H0V11.565H1.225V6.98902ZM1.225 0.611025H0V5.18902H1.225V0.611025ZM21.725 22.052C21.725 21.4818 21.5559 20.9244 21.2391 20.4503C20.9223 19.9762 20.4721 19.6067 19.9453 19.3885C19.4185 19.1703 18.8388 19.1132 18.2795 19.2244C17.7203 19.3357 17.2066 19.6102 16.8034 20.0134C16.4002 20.4166 16.1256 20.9303 16.0144 21.4896C15.9032 22.0488 15.9603 22.6285 16.1785 23.1553C16.3967 23.6821 16.7662 24.1324 17.2403 24.4492C17.7144 24.7659 18.2718 24.935 18.842 24.935C19.6067 24.9342 20.3399 24.6305 20.8811 24.0904C21.4224 23.5503 21.7276 22.8177 21.73 22.053L21.725 22.052ZM20.536 22.052C20.5367 22.2699 20.4942 22.4858 20.4111 22.6873C20.3281 22.8888 20.2059 23.0718 20.0519 23.2259C19.8978 23.38 19.7147 23.5021 19.5133 23.5852C19.3118 23.6682 19.0959 23.7107 18.878 23.71C18.6569 23.7155 18.437 23.6766 18.2311 23.5957C18.0253 23.5149 17.8377 23.3937 17.6794 23.2392C17.5211 23.0848 17.3953 22.9002 17.3094 22.6964C17.2235 22.4926 17.1793 22.2737 17.1793 22.0525C17.1793 21.8314 17.2235 21.6124 17.3094 21.4086C17.3953 21.2048 17.5211 21.0203 17.6794 20.8658C17.8377 20.7114 18.0253 20.5902 18.2311 20.5093C18.437 20.4284 18.6569 20.3896 18.878 20.395C19.0963 20.3937 19.3128 20.4356 19.5148 20.5184C19.7168 20.6012 19.9005 20.7232 20.0551 20.8774C20.2097 21.0315 20.3323 21.2148 20.4157 21.4166C20.4991 21.6184 20.5417 21.8347 20.541 22.053L20.536 22.052ZM21.725 28.43C21.725 27.8598 21.5559 27.3024 21.2391 26.8283C20.9223 26.3542 20.4721 25.9847 19.9453 25.7665C19.4185 25.5483 18.8388 25.4912 18.2795 25.6024C17.7203 25.7137 17.2066 25.9882 16.8034 26.3914C16.4002 26.7946 16.1256 27.3083 16.0144 27.8676C15.9032 28.4268 15.9603 29.0065 16.1785 29.5333C16.3967 30.0601 16.7662 30.5104 17.2403 30.8272C17.7144 31.1439 18.2718 31.313 18.842 31.313C19.6065 31.3122 20.3395 31.0087 20.8808 30.4688C21.422 29.9288 21.7274 29.1965 21.73 28.432L21.725 28.43ZM20.536 28.43C20.5367 28.6479 20.4942 28.8638 20.4111 29.0653C20.3281 29.2668 20.2059 29.4498 20.0519 29.6039C19.8978 29.758 19.7147 29.8801 19.5133 29.9632C19.3118 30.0462 19.0959 30.0887 18.878 30.088C18.4398 30.0831 18.0209 29.9068 17.7111 29.5969C17.4012 29.2871 17.2249 28.8682 17.22 28.43C17.2306 27.9975 17.4099 27.5862 17.7196 27.284C18.0293 26.9819 18.4448 26.8127 18.8775 26.8127C19.3102 26.8127 19.7257 26.9819 20.0354 27.284C20.3451 27.5862 20.5244 27.9975 20.535 28.43H20.536ZM21.725 34.808C21.725 34.2378 21.5559 33.6804 21.2391 33.2063C20.9223 32.7322 20.4721 32.3627 19.9453 32.1445C19.4185 31.9263 18.8388 31.8692 18.2795 31.9804C17.7203 32.0917 17.2066 32.3662 16.8034 32.7694C16.4002 33.1726 16.1256 33.6863 16.0144 34.2456C15.9032 34.8048 15.9603 35.3845 16.1785 35.9113C16.3967 36.4381 16.7662 36.8884 17.2403 37.2052C17.7144 37.5219 18.2718 37.691 18.842 37.691C19.6065 37.6902 20.3395 37.3867 20.8808 36.8467C21.422 36.3068 21.7274 35.5745 21.73 34.81L21.725 34.808ZM20.536 34.808C20.5367 35.0259 20.4942 35.2418 20.4111 35.4433C20.3281 35.6447 20.2059 35.8278 20.0519 35.9819C19.8978 36.136 19.7147 36.2581 19.5133 36.3412C19.3118 36.4242 19.0959 36.4667 18.878 36.466C18.4398 36.4611 18.0209 36.2848 17.7111 35.9749C17.4012 35.6651 17.2249 35.2462 17.22 34.808C17.2306 34.3755 17.4099 33.9642 17.7196 33.662C18.0293 33.3599 18.4448 33.1907 18.8775 33.1907C19.3102 33.1907 19.7257 33.3599 20.0354 33.662C20.3451 33.9642 20.5244 34.3755 20.535 34.808H20.536ZM21.725 15.637C21.725 15.0668 21.5559 14.5094 21.2391 14.0353C20.9223 13.5612 20.4721 13.1917 19.9453 12.9735C19.4185 12.7553 18.8388 12.6982 18.2795 12.8094C17.7203 12.9207 17.2066 13.1952 16.8034 13.5984C16.4002 14.0016 16.1256 14.5153 16.0144 15.0746C15.9032 15.6338 15.9603 16.2135 16.1785 16.7403C16.3967 17.2671 16.7662 17.7174 17.2403 18.0342C17.7144 18.3509 18.2718 18.52 18.842 18.52C19.6065 18.5192 20.3395 18.2157 20.8808 17.6758C21.422 17.1358 21.7274 16.4035 21.73 15.639L21.725 15.637ZM20.536 15.637C20.5367 15.8549 20.4942 16.0708 20.4111 16.2723C20.3281 16.4738 20.2059 16.6568 20.0519 16.8109C19.8978 16.965 19.7147 17.0871 19.5133 17.1702C19.3118 17.2533 19.0959 17.2957 18.878 17.295C18.5501 17.295 18.2295 17.1978 17.9569 17.0156C17.6842 16.8334 17.4717 16.5745 17.3462 16.2715C17.2207 15.9686 17.1879 15.6352 17.2519 15.3136C17.3158 14.9919 17.4737 14.6965 17.7056 14.4646C17.9375 14.2328 18.2329 14.0749 18.5545 14.0109C18.8762 13.9469 19.2095 13.9797 19.5125 14.1052C19.8154 14.2307 20.0744 14.4432 20.2566 14.7159C20.4388 14.9885 20.536 15.3091 20.536 15.637ZM19.455 6.98902H18.23V11.565H19.455V6.98902ZM19.455 0.611025H18.23V5.18902H19.455V0.611025ZM27.815 22.052C27.815 21.4818 27.6459 20.9244 27.3291 20.4503C27.0123 19.9762 26.5621 19.6067 26.0353 19.3885C25.5085 19.1703 24.9288 19.1132 24.3696 19.2244C23.8103 19.3357 23.2966 19.6102 22.8934 20.0134C22.4902 20.4166 22.2156 20.9303 22.1044 21.4896C21.9932 22.0488 22.0502 22.6285 22.2685 23.1553C22.4867 23.6821 22.8562 24.1324 23.3303 24.4492C23.8044 24.7659 24.3618 24.935 24.932 24.935C25.6967 24.9342 26.4299 24.6305 26.9711 24.0904C27.5124 23.5503 27.8176 22.8177 27.82 22.053L27.815 22.052ZM26.59 22.052C26.5907 22.2699 26.5482 22.4858 26.4651 22.6873C26.3821 22.8888 26.2599 23.0718 26.1059 23.2259C25.9518 23.38 25.7687 23.5021 25.5673 23.5852C25.3658 23.6682 25.1499 23.7107 24.932 23.71C24.7109 23.7155 24.491 23.6766 24.2851 23.5957C24.0793 23.5149 23.8917 23.3937 23.7334 23.2392C23.5751 23.0848 23.4493 22.9002 23.3634 22.6964C23.2775 22.4926 23.2333 22.2737 23.2333 22.0525C23.2333 21.8314 23.2775 21.6124 23.3634 21.4086C23.4493 21.2048 23.5751 21.0203 23.7334 20.8658C23.8917 20.7114 24.0793 20.5902 24.2851 20.5093C24.491 20.4284 24.7109 20.3896 24.932 20.395C25.1503 20.3937 25.3668 20.4356 25.5688 20.5184C25.7708 20.6012 25.9545 20.7232 26.1091 20.8774C26.2637 21.0315 26.3863 21.2148 26.4697 21.4166C26.5531 21.6184 26.5957 21.8347 26.595 22.053L26.59 22.052ZM27.815 28.43C27.815 27.8598 27.6459 27.3024 27.3291 26.8283C27.0123 26.3542 26.5621 25.9847 26.0353 25.7665C25.5085 25.5483 24.9288 25.4912 24.3696 25.6024C23.8103 25.7137 23.2966 25.9882 22.8934 26.3914C22.4902 26.7946 22.2156 27.3083 22.1044 27.8676C21.9932 28.4268 22.0502 29.0065 22.2685 29.5333C22.4867 30.0601 22.8562 30.5104 23.3303 30.8272C23.8044 31.1439 24.3618 31.313 24.932 31.313C25.6965 31.3122 26.4296 31.0087 26.9708 30.4688C27.512 29.9288 27.8174 29.1965 27.82 28.432L27.815 28.43ZM26.59 28.43C26.5907 28.6479 26.5482 28.8638 26.4651 29.0653C26.3821 29.2668 26.2599 29.4498 26.1059 29.6039C25.9518 29.758 25.7687 29.8801 25.5673 29.9632C25.3658 30.0462 25.1499 30.0887 24.932 30.088C24.4938 30.0831 24.0749 29.9068 23.7651 29.5969C23.4552 29.2871 23.2789 28.8682 23.274 28.43C23.2846 27.9975 23.4639 27.5862 23.7736 27.284C24.0833 26.9819 24.4988 26.8127 24.9315 26.8127C25.3642 26.8127 25.7797 26.9819 26.0894 27.284C26.3991 27.5862 26.5784 27.9975 26.589 28.43H26.59ZM27.815 34.808C27.815 34.2378 27.6459 33.6804 27.3291 33.2063C27.0123 32.7322 26.5621 32.3627 26.0353 32.1445C25.5085 31.9263 24.9288 31.8692 24.3696 31.9804C23.8103 32.0917 23.2966 32.3662 22.8934 32.7694C22.4902 33.1726 22.2156 33.6863 22.1044 34.2456C21.9932 34.8048 22.0502 35.3845 22.2685 35.9113C22.4867 36.4381 22.8562 36.8884 23.3303 37.2052C23.8044 37.5219 24.3618 37.691 24.932 37.691C25.6965 37.6902 26.4296 37.3867 26.9708 36.8467C27.512 36.3068 27.8174 35.5745 27.82 34.81L27.815 34.808ZM26.59 34.808C26.5907 35.0259 26.5482 35.2418 26.4651 35.4433C26.3821 35.6447 26.2599 35.8278 26.1059 35.9819C25.9518 36.136 25.7687 36.2581 25.5673 36.3412C25.3658 36.4242 25.1499 36.4667 24.932 36.466C24.4938 36.4611 24.0749 36.2848 23.7651 35.9749C23.4552 35.6651 23.2789 35.2462 23.274 34.808C23.2846 34.3755 23.4639 33.9642 23.7736 33.662C24.0833 33.3599 24.4988 33.1907 24.9315 33.1907C25.3642 33.1907 25.7797 33.3599 26.0894 33.662C26.3991 33.9642 26.5784 34.3755 26.589 34.808H26.59ZM25.55 13.369H24.325V17.945H25.55V13.369ZM27.82 9.26102C27.82 8.69082 27.6509 8.13342 27.3341 7.65932C27.0173 7.18521 26.5671 6.81569 26.0403 6.59748C25.5135 6.37927 24.9338 6.32218 24.3745 6.43342C23.8153 6.54466 23.3016 6.81924 22.8984 7.22244C22.4952 7.62563 22.2206 8.13933 22.1094 8.69858C21.9982 9.25783 22.0553 9.8375 22.2735 10.3643C22.4917 10.8911 22.8612 11.3414 23.3353 11.6582C23.8094 11.9749 24.3668 12.144 24.937 12.144C25.701 12.1419 26.433 11.8375 26.9733 11.2973C27.5135 10.7571 27.8179 10.025 27.82 9.26102ZM26.595 9.26102C26.5957 9.47894 26.5532 9.69484 26.4701 9.89629C26.387 10.0978 26.2649 10.2808 26.1108 10.4349C25.9568 10.589 25.7737 10.7111 25.5723 10.7942C25.3708 10.8773 25.1549 10.9197 24.937 10.919C24.6091 10.919 24.2885 10.8218 24.0159 10.6396C23.7432 10.4574 23.5307 10.1985 23.4052 9.89551C23.2797 9.59255 23.2469 9.25919 23.3109 8.93756C23.3748 8.61594 23.5327 8.32052 23.7646 8.08864C23.9965 7.85677 24.2919 7.69886 24.6135 7.63488C24.9352 7.57091 25.2685 7.60374 25.5715 7.72923C25.8745 7.85472 26.1334 8.06723 26.3156 8.33989C26.4978 8.61255 26.595 8.9331 26.595 9.26102ZM25.55 0.613025H24.325V5.18902H25.55V0.613025ZM37.694 19.748H36.469V24.324H37.694V19.748ZM40 28.432C40 27.8618 39.8309 27.3044 39.5141 26.8303C39.1973 26.3562 38.7471 25.9867 38.2203 25.7685C37.6935 25.5503 37.1138 25.4932 36.5546 25.6044C35.9953 25.7157 35.4816 25.9902 35.0784 26.3934C34.6752 26.7966 34.4006 27.3103 34.2894 27.8696C34.1782 28.4288 34.2352 29.0085 34.4535 29.5353C34.6717 30.0621 35.0412 30.5124 35.5153 30.8292C35.9894 31.1459 36.5468 31.315 37.117 31.315C37.881 31.3129 38.613 31.0085 39.1533 30.4683C39.6935 29.9281 39.9979 29.196 40 28.432ZM38.775 28.432C38.775 28.7599 38.6778 29.0805 38.4956 29.3532C38.3134 29.6258 38.0544 29.8383 37.7515 29.9638C37.4485 30.0893 37.1152 30.1221 36.7935 30.0582C36.4719 29.9942 36.1765 29.8363 35.9446 29.6044C35.7127 29.3725 35.5548 29.0771 35.4909 28.7555C35.4269 28.4339 35.4597 28.1005 35.5852 27.7975C35.7107 27.4946 35.9232 27.2356 36.1959 27.0534C36.4685 26.8713 36.7891 26.774 37.117 26.774C37.3357 26.7704 37.553 26.8108 37.7558 26.8928C37.9586 26.9748 38.1428 27.0968 38.2975 27.2515C38.4522 27.4062 38.5742 27.5904 38.6562 27.7932C38.7383 27.996 38.7787 28.2133 38.775 28.432ZM40 34.81C40 34.2398 39.8309 33.6824 39.5141 33.2083C39.1973 32.7342 38.7471 32.3647 38.2203 32.1465C37.6935 31.9283 37.1138 31.8712 36.5546 31.9824C35.9953 32.0937 35.4816 32.3682 35.0784 32.7714C34.6752 33.1746 34.4006 33.6883 34.2894 34.2476C34.1782 34.8068 34.2352 35.3865 34.4535 35.9133C34.6717 36.4401 35.0412 36.8904 35.5153 37.2071C35.9894 37.5239 36.5468 37.693 37.117 37.693C37.881 37.6909 38.613 37.3865 39.1533 36.8463C39.6935 36.3061 39.9979 35.574 40 34.81ZM38.775 34.81C38.775 35.1379 38.6778 35.4585 38.4956 35.7312C38.3134 36.0038 38.0544 36.2163 37.7515 36.3418C37.4485 36.4673 37.1152 36.5001 36.7935 36.4362C36.4719 36.3722 36.1765 36.2143 35.9446 35.9824C35.7127 35.7505 35.5548 35.4551 35.4909 35.1335C35.4269 34.8119 35.4597 34.4785 35.5852 34.1755C35.7107 33.8726 35.9232 33.6136 36.1959 33.4314C36.4685 33.2493 36.7891 33.152 37.117 33.152C37.3357 33.1484 37.553 33.1888 37.7558 33.2708C37.9586 33.3528 38.1428 33.4748 38.2975 33.6295C38.4522 33.7842 38.5742 33.9684 38.6562 34.1712C38.7383 34.374 38.7787 34.5913 38.775 34.81ZM40 15.639C40 15.0688 39.8309 14.5114 39.5141 14.0373C39.1973 13.5632 38.7471 13.1937 38.2203 12.9755C37.6935 12.7573 37.1138 12.7002 36.5546 12.8114C35.9953 12.9227 35.4816 13.1972 35.0784 13.6004C34.6752 14.0036 34.4006 14.5173 34.2894 15.0766C34.1782 15.6358 34.2352 16.2155 34.4535 16.7423C34.6717 17.2691 35.0412 17.7194 35.5153 18.0362C35.9894 18.3529 36.5468 18.522 37.117 18.522C37.881 18.5199 38.613 18.2155 39.1533 17.6753C39.6935 17.1351 39.9979 16.403 40 15.639ZM38.775 15.639C38.7644 16.0716 38.5851 16.4828 38.2754 16.785C37.9657 17.0872 37.5502 17.2563 37.1175 17.2563C36.6848 17.2563 36.2693 17.0872 35.9596 16.785C35.6499 16.4828 35.4706 16.0716 35.46 15.639C35.4706 15.2065 35.6499 14.7952 35.9596 14.493C36.2693 14.1909 36.6848 14.0217 37.1175 14.0217C37.5502 14.0217 37.9657 14.1909 38.2754 14.493C38.5851 14.7952 38.7644 15.2065 38.775 15.639ZM37.694 6.99102H36.469V11.567H37.694V6.99102ZM37.694 0.613025H36.469V5.18902H37.694V0.613025ZM9.58599 22.053C9.58599 21.4828 9.41691 20.9254 9.10012 20.4513C8.78333 19.9772 8.33308 19.6077 7.80628 19.3895C7.27948 19.1713 6.6998 19.1142 6.14056 19.2254C5.58131 19.3367 5.0676 19.6112 4.66441 20.0144C4.26121 20.4176 3.98663 20.9313 3.87539 21.4906C3.76415 22.0498 3.82124 22.6295 4.03945 23.1563C4.25766 23.6831 4.62719 24.1334 5.1013 24.4502C5.5754 24.7669 6.13279 24.936 6.703 24.936C7.46697 24.9339 8.19904 24.6295 8.73925 24.0893C9.27946 23.5491 9.58388 22.817 9.58599 22.053ZM8.361 22.053C8.35038 22.4856 8.17108 22.8968 7.8614 23.199C7.55171 23.5012 7.13618 23.6703 6.7035 23.6703C6.27082 23.6703 5.85528 23.5012 5.5456 23.199C5.23592 22.8968 5.05662 22.4856 5.046 22.053C5.05221 21.6164 5.2285 21.1994 5.53738 20.8907C5.84625 20.582 6.26336 20.406 6.7 20.4C6.91848 20.3961 7.13551 20.4362 7.33822 20.5178C7.54092 20.5994 7.72516 20.7209 7.88 20.875C8.03484 21.0292 8.15711 21.213 8.23957 21.4153C8.32203 21.6177 8.36298 21.8345 8.35999 22.053H8.361ZM7.316 26.125H6.09V30.7H7.31499L7.316 26.125ZM7.316 32.539H6.09V37.115H7.31499L7.316 32.539ZM9.58599 15.639C9.58599 15.0688 9.41691 14.5114 9.10012 14.0373C8.78333 13.5632 8.33308 13.1937 7.80628 12.9755C7.27948 12.7573 6.6998 12.7002 6.14056 12.8114C5.58131 12.9227 5.0676 13.1972 4.66441 13.6004C4.26121 14.0036 3.98663 14.5173 3.87539 15.0766C3.76415 15.6358 3.82124 16.2155 4.03945 16.7423C4.25766 17.2691 4.62719 17.7194 5.1013 18.0362C5.5754 18.3529 6.13279 18.522 6.703 18.522C7.46697 18.5199 8.19904 18.2155 8.73925 17.6753C9.27946 17.1351 9.58388 16.403 9.58599 15.639ZM8.361 15.639C8.35038 16.0716 8.17108 16.4828 7.8614 16.785C7.55171 17.0872 7.13618 17.2563 6.7035 17.2563C6.27082 17.2563 5.85528 17.0872 5.5456 16.785C5.23592 16.4828 5.05662 16.0716 5.046 15.639C5.05662 15.2065 5.23592 14.7952 5.5456 14.493C5.85528 14.1909 6.27082 14.0217 6.7035 14.0217C7.13618 14.0217 7.55171 14.1909 7.8614 14.493C8.17108 14.7952 8.35038 15.2065 8.361 15.639ZM7.316 6.99102H6.09V11.567H7.31499L7.316 6.99102ZM9.58599 2.88302C9.58599 2.31295 9.41699 1.75567 9.10033 1.28163C8.78368 0.807586 8.33359 0.438064 7.80697 0.219768C7.28034 0.00147294 6.70082 -0.055795 6.14165 0.0552033C5.58249 0.166202 5.06879 0.440483 4.66547 0.843378C4.26216 1.24627 3.98733 1.75969 3.87576 2.31874C3.76418 2.87779 3.82085 3.45737 4.0386 3.98422C4.25634 4.51108 4.6254 4.96155 5.09911 5.27869C5.57283 5.59584 6.12993 5.76543 6.7 5.76602C7.46449 5.76471 8.19734 5.46063 8.7382 4.92034C9.27906 4.38004 9.58388 3.64751 9.58599 2.88302ZM8.361 2.88302C8.35038 3.31557 8.17108 3.72683 7.8614 4.029C7.55171 4.33117 7.13618 4.50031 6.7035 4.50031C6.27082 4.50031 5.85528 4.33117 5.5456 4.029C5.23592 3.72683 5.05662 3.31557 5.046 2.88302C5.05662 2.45048 5.23592 2.03922 5.5456 1.73705C5.85528 1.43488 6.27082 1.26574 6.7035 1.26574C7.13618 1.26574 7.55171 1.43488 7.8614 1.73705C8.17108 2.03922 8.35038 2.45048 8.361 2.88302ZM15.676 22.054C15.676 21.4838 15.5069 20.9264 15.1901 20.4523C14.8733 19.9782 14.4231 19.6087 13.8963 19.3905C13.3695 19.1723 12.7898 19.1152 12.2306 19.2264C11.6713 19.3377 11.1576 19.6122 10.7544 20.0154C10.3512 20.4186 10.0766 20.9323 9.9654 21.4916C9.85416 22.0508 9.91124 22.6305 10.1294 23.1573C10.3477 23.6841 10.7172 24.1344 11.1913 24.4512C11.6654 24.7679 12.2228 24.937 12.793 24.937C13.5571 24.9349 14.2894 24.6304 14.8296 24.0899C15.3699 23.5495 15.6742 22.8172 15.676 22.053V22.054ZM14.451 22.054C14.4404 22.4866 14.2611 22.8978 13.9514 23.2C13.6417 23.5022 13.2262 23.6713 12.7935 23.6713C12.3608 23.6713 11.9453 23.5022 11.6356 23.2C11.3259 22.8978 11.1466 22.4866 11.136 22.054C11.1409 21.6158 11.3172 21.197 11.6271 20.8871C11.9369 20.5772 12.3558 20.401 12.794 20.396C13.0125 20.3926 13.2294 20.4332 13.4319 20.5153C13.6344 20.5974 13.8184 20.7193 13.9728 20.8739C14.1273 21.0284 14.2491 21.2125 14.3311 21.415C14.4131 21.6176 14.4535 21.8345 14.45 22.053L14.451 22.054ZM13.37 26.126H12.145V30.7H13.37V26.126ZM13.37 32.54H12.145V37.116H13.37V32.54ZM13.37 13.369H12.145V17.945H13.37V13.369ZM15.676 9.26102C15.676 8.69082 15.5069 8.13342 15.1901 7.65932C14.8733 7.18521 14.4231 6.81569 13.8963 6.59748C13.3695 6.37927 12.7898 6.32218 12.2306 6.43342C11.6713 6.54466 11.1576 6.81924 10.7544 7.22244C10.3512 7.62563 10.0766 8.13933 9.9654 8.69858C9.85416 9.25783 9.91124 9.8375 10.1294 10.3643C10.3477 10.8911 10.7172 11.3414 11.1913 11.6582C11.6654 11.9749 12.2228 12.144 12.793 12.144C13.557 12.1419 14.2891 11.8375 14.8293 11.2973C15.3695 10.7571 15.6739 10.025 15.676 9.26102ZM14.451 9.26102C14.4404 9.69357 14.2611 10.1048 13.9514 10.407C13.6417 10.7092 13.2262 10.8783 12.7935 10.8783C12.3608 10.8783 11.9453 10.7092 11.6356 10.407C11.3259 10.1048 11.1466 9.69357 11.136 9.26102C11.1466 8.82848 11.3259 8.41722 11.6356 8.11505C11.9453 7.81288 12.3608 7.64374 12.7935 7.64374C13.2262 7.64374 13.6417 7.81288 13.9514 8.11505C14.2611 8.41722 14.4404 8.82848 14.451 9.26102ZM15.676 2.88302C15.676 2.31282 15.5069 1.75542 15.1901 1.28132C14.8733 0.807209 14.4231 0.437687 13.8963 0.21948C13.3695 0.00127259 12.7898 -0.0558204 12.2306 0.0554208C11.6713 0.166662 11.1576 0.441241 10.7544 0.844436C10.3512 1.24763 10.0766 1.76133 9.9654 2.32058C9.85416 2.87983 9.91124 3.4595 10.1294 3.9863C10.3477 4.5131 10.7172 4.96336 11.1913 5.28015C11.6654 5.59694 12.2228 5.76602 12.793 5.76602C13.557 5.76391 14.2891 5.45949 14.8293 4.91928C15.3695 4.37907 15.6739 3.64699 15.676 2.88302ZM14.451 2.88302C14.4404 3.31557 14.2611 3.72683 13.9514 4.029C13.6417 4.33117 13.2262 4.50031 12.7935 4.50031C12.3608 4.50031 11.9453 4.33117 11.6356 4.029C11.3259 3.72683 11.1466 3.31557 11.136 2.88302C11.1466 2.45048 11.3259 2.03922 11.6356 1.73705C11.9453 1.43488 12.3608 1.26574 12.7935 1.26574C13.2262 1.26574 13.6417 1.43488 13.9514 1.73705C14.2611 2.03922 14.4404 2.45048 14.451 2.88302ZM33.91 22.053C33.91 21.4828 33.7409 20.9254 33.4241 20.4513C33.1073 19.9772 32.6571 19.6077 32.1303 19.3895C31.6035 19.1713 31.0238 19.1142 30.4645 19.2254C29.9053 19.3367 29.3916 19.6112 28.9884 20.0144C28.5852 20.4176 28.3106 20.9313 28.1994 21.4906C28.0882 22.0498 28.1452 22.6295 28.3635 23.1563C28.5817 23.6831 28.9512 24.1334 29.4253 24.4502C29.8994 24.7669 30.4568 24.936 31.027 24.936C31.791 24.9339 32.523 24.6295 33.0633 24.0893C33.6035 23.5491 33.9079 22.817 33.91 22.053ZM32.685 22.053C32.6857 22.2709 32.6432 22.4868 32.5601 22.6883C32.4771 22.8897 32.3549 23.0728 32.2009 23.2269C32.0468 23.381 31.8637 23.5031 31.6623 23.5862C31.4608 23.6693 31.2449 23.7117 31.027 23.711C30.8059 23.7165 30.586 23.6776 30.3801 23.5967C30.1743 23.5159 29.9867 23.3947 29.8284 23.2402C29.6701 23.0858 29.5443 22.9012 29.4584 22.6974C29.3725 22.4936 29.3283 22.2747 29.3283 22.0535C29.3283 21.8324 29.3725 21.6134 29.4584 21.4096C29.5443 21.2058 29.6701 21.0213 29.8284 20.8668C29.9867 20.7124 30.1743 20.5912 30.3801 20.5103C30.586 20.4294 30.8059 20.3906 31.027 20.396C31.2448 20.3954 31.4606 20.4378 31.662 20.5208C31.8634 20.6038 32.0464 20.7258 32.2005 20.8798C32.3546 21.0338 32.4767 21.2167 32.5599 21.4181C32.643 21.6194 32.6855 21.8352 32.685 22.053ZM33.91 28.431C33.91 27.8608 33.7409 27.3034 33.4241 26.8293C33.1073 26.3552 32.6571 25.9857 32.1303 25.7675C31.6035 25.5493 31.0238 25.4922 30.4645 25.6034C29.9053 25.7147 29.3916 25.9892 28.9884 26.3924C28.5852 26.7956 28.3106 27.3093 28.1994 27.8686C28.0882 28.4278 28.1452 29.0075 28.3635 29.5343C28.5817 30.0611 28.9512 30.5114 29.4253 30.8282C29.8994 31.1449 30.4568 31.314 31.027 31.314C31.7908 31.3119 32.5227 31.0076 33.0629 30.4676C33.6031 29.9276 33.9076 29.1958 33.91 28.432V28.431ZM32.685 28.431C32.6857 28.6489 32.6432 28.8648 32.5601 29.0663C32.4771 29.2677 32.3549 29.4508 32.2009 29.6049C32.0468 29.759 31.8637 29.8811 31.6623 29.9642C31.4608 30.0472 31.2449 30.0897 31.027 30.089C30.5888 30.0841 30.1699 29.9078 29.8601 29.5979C29.5502 29.2881 29.3739 28.8692 29.369 28.431C29.3796 27.9985 29.5589 27.5872 29.8686 27.285C30.1783 26.9829 30.5938 26.8137 31.0265 26.8137C31.4592 26.8137 31.8747 26.9829 32.1844 27.285C32.4941 27.5872 32.6734 27.9985 32.684 28.431H32.685ZM33.91 34.809C33.91 34.2388 33.7409 33.6814 33.4241 33.2073C33.1073 32.7332 32.6571 32.3637 32.1303 32.1455C31.6035 31.9273 31.0238 31.8702 30.4645 31.9814C29.9053 32.0927 29.3916 32.3672 28.9884 32.7704C28.5852 33.1736 28.3106 33.6873 28.1994 34.2466C28.0882 34.8058 28.1452 35.3855 28.3635 35.9123C28.5817 36.4391 28.9512 36.8894 29.4253 37.2062C29.8994 37.5229 30.4568 37.692 31.027 37.692C31.7908 37.6899 32.5227 37.3856 33.0629 36.8456C33.6031 36.3056 33.9076 35.5738 33.91 34.81V34.809ZM32.685 34.809C32.6857 35.0269 32.6432 35.2428 32.5601 35.4443C32.4771 35.6457 32.3549 35.8288 32.2009 35.9829C32.0468 36.137 31.8637 36.2591 31.6623 36.3422C31.4608 36.4252 31.2449 36.4677 31.027 36.467C30.5888 36.4621 30.1699 36.2858 29.8601 35.9759C29.5502 35.6661 29.3739 35.2472 29.369 34.809C29.3796 34.3765 29.5589 33.9652 29.8686 33.663C30.1783 33.3609 30.5938 33.1917 31.0265 33.1917C31.4592 33.1917 31.8747 33.3609 32.1844 33.663C32.4941 33.9652 32.6734 34.3765 32.684 34.809H32.685ZM33.91 15.638C33.91 15.0678 33.7409 14.5104 33.4241 14.0363C33.1073 13.5622 32.6571 13.1927 32.1303 12.9745C31.6035 12.7563 31.0238 12.6992 30.4645 12.8104C29.9053 12.9217 29.3916 13.1962 28.9884 13.5994C28.5852 14.0026 28.3106 14.5163 28.1994 15.0756C28.0882 15.6348 28.1452 16.2145 28.3635 16.7413C28.5817 17.2681 28.9512 17.7184 29.4253 18.0352C29.8994 18.3519 30.4568 18.521 31.027 18.521C31.7908 18.5189 32.5227 18.2146 33.0629 17.6746C33.6031 17.1346 33.9076 16.4028 33.91 15.639V15.638ZM32.685 15.638C32.6857 15.8559 32.6432 16.0718 32.5601 16.2733C32.4771 16.4748 32.3549 16.6578 32.2009 16.8119C32.0468 16.966 31.8637 17.0881 31.6623 17.1712C31.4608 17.2542 31.2449 17.2967 31.027 17.296C30.6991 17.296 30.3785 17.1988 30.1059 17.0166C29.8332 16.8344 29.6207 16.5755 29.4952 16.2725C29.3697 15.9696 29.3369 15.6362 29.4009 15.3146C29.4648 14.9929 29.6227 14.6975 29.8546 14.4656C30.0865 14.2338 30.3819 14.0759 30.7035 14.0119C31.0252 13.9479 31.3585 13.9807 31.6615 14.1062C31.9645 14.2317 32.2234 14.4442 32.4056 14.7169C32.5878 14.9895 32.685 15.3101 32.685 15.638ZM33.91 9.26003C33.91 8.68982 33.7409 8.13242 33.4241 7.65832C33.1073 7.18421 32.6571 6.81469 32.1303 6.59648C31.6035 6.37827 31.0238 6.32118 30.4645 6.43242C29.9053 6.54366 29.3916 6.81824 28.9884 7.22144C28.5852 7.62463 28.3106 8.13833 28.1994 8.69758C28.0882 9.25683 28.1452 9.8365 28.3635 10.3633C28.5817 10.8901 28.9512 11.3404 29.4253 11.6572C29.8994 11.9739 30.4568 12.143 31.027 12.143C31.7908 12.1409 32.5227 11.8366 33.0629 11.2966C33.6031 10.7566 33.9076 10.0248 33.91 9.26102V9.26003ZM32.685 9.26003C32.6857 9.47794 32.6432 9.69384 32.5601 9.89529C32.4771 10.0968 32.3549 10.2798 32.2009 10.4339C32.0468 10.588 31.8637 10.7101 31.6623 10.7932C31.4608 10.8763 31.2449 10.9187 31.027 10.918C30.6991 10.918 30.3785 10.8208 30.1059 10.6386C29.8332 10.4564 29.6207 10.1975 29.4952 9.89451C29.3697 9.59155 29.3369 9.25819 29.4009 8.93657C29.4648 8.61494 29.6227 8.31952 29.8546 8.08764C30.0865 7.85577 30.3819 7.69786 30.7035 7.63388C31.0252 7.56991 31.3585 7.60274 31.6615 7.72823C31.9645 7.85372 32.2234 8.06623 32.4056 8.33889C32.5878 8.61155 32.685 8.9321 32.685 9.26003ZM33.91 2.88202C33.91 2.31182 33.7409 1.75442 33.4241 1.28032C33.1073 0.806209 32.6571 0.436687 32.1303 0.21848C31.6035 0.000272602 31.0238 -0.0568204 30.4645 0.0544208C29.9053 0.165662 29.3916 0.440241 28.9884 0.843436C28.5852 1.24663 28.3106 1.76033 28.1994 2.31958C28.0882 2.87883 28.1452 3.4585 28.3635 3.9853C28.5817 4.5121 28.9512 4.96236 29.4253 5.27915C29.8994 5.59594 30.4568 5.76502 31.027 5.76502C31.7908 5.76291 32.5227 5.45863 33.0629 4.91864C33.6031 4.37864 33.9076 3.64682 33.91 2.88302V2.88202ZM32.685 2.88202C32.6857 3.09994 32.6432 3.31584 32.5601 3.51729C32.4771 3.71875 32.3549 3.90179 32.2009 4.05588C32.0468 4.20997 31.8637 4.33207 31.6623 4.41516C31.4608 4.49825 31.2449 4.54068 31.027 4.54002C30.5888 4.53509 30.1699 4.35882 29.8601 4.04895C29.5502 3.73908 29.3739 3.32022 29.369 2.88202C29.3796 2.44948 29.5589 2.03822 29.8686 1.73605C30.1783 1.43388 30.5938 1.26474 31.0265 1.26474C31.4592 1.26474 31.8747 1.43388 32.1844 1.73605C32.4941 2.03822 32.6734 2.44948 32.684 2.88202H32.685Z" fill="url(#paint0_linear_1097_545)"/>
</g>
<defs>
<linearGradient id="paint0_linear_1097_545" x1="0" y1="18.846" x2="40" y2="18.846" gradientUnits="userSpaceOnUse">
<stop stop-color="#17B184"/>
<stop offset="1" stop-color="#00A9A7"/>
</linearGradient>
<clipPath id="clip0_1097_545">
<rect width="40" height="37.693" fill="white"/>
</clipPath>
</defs>
</svg>
