<svg width="48" height="48" viewBox="0 0 48 48" fill="none" xmlns="http://www.w3.org/2000/svg">
<g clip-path="url(#clip0_1098_2269)">
<path d="M46 4H2C1.46957 4 0.960859 4.21071 0.585786 4.58579C0.210714 4.96086 0 5.46957 0 6L0 42C0 42.5304 0.210714 43.0391 0.585786 43.4142C0.960859 43.7893 1.46957 44 2 44H46C46.5304 44 47.0391 43.7893 47.4142 43.4142C47.7893 43.0391 48 42.5304 48 42V6C48 5.46957 47.7893 4.96086 47.4142 4.58579C47.0391 4.21071 46.5304 4 46 4ZM28 12C29.1867 12 30.3467 12.3519 31.3334 13.0112C32.3201 13.6705 33.0892 14.6075 33.5433 15.7039C33.9974 16.8003 34.1162 18.0067 33.8847 19.1705C33.6532 20.3344 33.0818 21.4035 32.2426 22.2426C31.4035 23.0818 30.3344 23.6532 29.1705 23.8847C28.0067 24.1162 26.8003 23.9974 25.7039 23.5433C24.6075 23.0892 23.6705 22.3201 23.0112 21.3334C22.3519 20.3467 22 19.1867 22 18C22.0019 16.4093 22.6346 14.8842 23.7594 13.7594C24.8842 12.6346 26.4093 12.0019 28 12ZM44 40H4V22L12 12L28 34L38 26L44 32V40Z" fill="#0066A1"/>
</g>
<defs>
<clipPath id="clip0_1098_2269">
<rect width="48" height="48" fill="white"/>
</clipPath>
</defs>
</svg>
