<svg width="16" height="16" viewBox="0 0 16 16" fill="none" xmlns="http://www.w3.org/2000/svg">
<path fill-rule="evenodd" clip-rule="evenodd" d="M10.9183 9.66664H10.2567L10.0267 9.43831C10.8392 8.49081 11.3333 7.26247 11.3333 5.91664C11.3333 2.92497 8.90833 0.499973 5.91667 0.499973C2.925 0.499973 0.5 2.92497 0.5 5.91664C0.5 8.90831 2.925 11.3333 5.91667 11.3333C7.2625 11.3333 8.49 10.84 9.4375 10.0283L9.6675 10.2566V10.9166L13.8325 15.0758L15.075 13.8333L10.9183 9.66664ZM5.91667 9.66664C3.845 9.66664 2.16667 7.98831 2.16667 5.91664C2.16667 3.84581 3.845 2.16664 5.91667 2.16664C7.9875 2.16664 9.66667 3.84581 9.66667 5.91664C9.66667 7.98831 7.9875 9.66664 5.91667 9.66664Z" fill="#7F7F7F"/>
</svg>
