<svg width="27" height="27" viewBox="0 0 27 27" fill="none" xmlns="http://www.w3.org/2000/svg">
<g clip-path="url(#clip0_1097_593)">
<path d="M22.4855 3H4.51453C3.67804 3 3 3.67804 3 4.51453V22.4855C3 23.322 3.67804 24 4.51453 24H22.4855C23.322 24 24 23.322 24 22.4855V4.51453C24 3.67804 23.322 3 22.4855 3V3ZM18.2942 11.1868C18.2988 11.2901 18.3011 11.3939 18.3011 11.4982C18.3011 14.6829 15.877 18.3552 11.4439 18.3554H11.4441H11.4439C10.0829 18.3554 8.81637 17.9564 7.7498 17.2728C7.93838 17.2951 8.13032 17.3061 8.32466 17.3061C9.45387 17.3061 10.493 16.921 11.318 16.2745C10.263 16.2549 9.37344 15.5582 9.06647 14.6005C9.21339 14.6287 9.36447 14.6441 9.5194 14.6441C9.73938 14.6441 9.95247 14.6145 10.155 14.5592C9.05221 14.3384 8.22148 13.3638 8.22148 12.1968C8.22148 12.1859 8.22148 12.1761 8.2218 12.166C8.54656 12.3466 8.91795 12.4552 9.31336 12.4674C8.66624 12.0356 8.24087 11.2975 8.24087 10.4613C8.24087 10.0198 8.36023 9.60608 8.56723 9.24992C9.75572 10.7082 11.5319 11.6673 13.5349 11.7681C13.4936 11.5915 13.4723 11.4076 13.4723 11.2185C13.4723 9.88806 14.5517 8.80868 15.8826 8.80868C16.5759 8.80868 17.202 9.10172 17.6418 9.57019C18.1908 9.46188 18.7064 9.26129 19.1722 8.98524C18.9919 9.54776 18.61 10.0198 18.1123 10.3182C18.5999 10.2599 19.0645 10.1306 19.4963 9.93869C19.1738 10.4221 18.7647 10.8466 18.2942 11.1868Z" fill="#7F7F7F"/>
</g>
<defs>
<clipPath id="clip0_1097_593">
<rect x="3" y="3" width="21" height="21" rx="5" fill="white"/>
</clipPath>
</defs>
</svg>
