<svg width="27" height="27" viewBox="0 0 27 27" fill="none" xmlns="http://www.w3.org/2000/svg">
<g clip-path="url(#clip0_1097_589)">
<path d="M21.171 3H5.83077C4.26795 3 3.00098 4.26692 3.00098 5.82979V21.1701C3.00098 22.733 4.2679 23.9999 5.83077 23.9999H13.3965L13.4094 16.4957H11.4598C11.2064 16.4957 11.0008 16.2908 10.9998 16.0374L10.9905 13.6185C10.9895 13.3638 11.1957 13.1567 11.4505 13.1567H13.3965V10.8194C13.3965 8.10703 15.0531 6.63011 17.4728 6.63011H19.4583C19.7123 6.63011 19.9183 6.83605 19.9183 7.09014V9.12979C19.9183 9.38377 19.7124 9.58966 19.4585 9.58982L18.24 9.59038C16.9242 9.59038 16.6694 10.2157 16.6694 11.1333V13.1568H19.5608C19.8363 13.1568 20.0501 13.3974 20.0176 13.671L19.7309 16.0899C19.7035 16.3214 19.5072 16.4958 19.2741 16.4958H16.6823L16.6694 24H21.1711C22.7339 24 24.0008 22.7331 24.0008 21.1703V5.82979C24.0008 4.26692 22.7339 3 21.171 3Z" fill="#7F7F7F"/>
</g>
<defs>
<clipPath id="clip0_1097_589">
<rect x="3" y="3" width="21" height="21" rx="5" fill="white"/>
</clipPath>
</defs>
</svg>
