<svg width="27" height="27" viewBox="0 0 27 27" fill="none" xmlns="http://www.w3.org/2000/svg">
<g clip-path="url(#clip0_1097_584)">
<path d="M26.5775 6.97302C26.2646 5.81052 25.3481 4.89418 24.1858 4.58115C22.0623 4 13.568 4 13.568 4C13.568 4 5.07401 4 2.95045 4.55899C1.81052 4.87182 0.871617 5.81073 0.558787 6.97302C0 9.09637 0 13.5 0 13.5C0 13.5 0 17.9258 0.558787 20.027C0.871824 21.1893 1.78816 22.1058 2.95066 22.4189C5.09637 23 13.5682 23 13.5682 23C13.5682 23 22.0623 23 24.1858 22.441C25.3483 22.1282 26.2646 21.2116 26.5777 20.0493C27.1365 17.9258 27.1365 13.5224 27.1365 13.5224C27.1365 13.5224 27.1588 9.09637 26.5775 6.97302Z" fill="#7F7F7F"/>
<path d="M10.8635 17.5684L17.927 13.5001L10.8635 9.43188V17.5684Z" fill="white"/>
</g>
<defs>
<clipPath id="clip0_1097_584">
<rect width="27" height="27" fill="white"/>
</clipPath>
</defs>
</svg>
